<?xml version="1.0" standalone="no"?><!DOCTYPE svg PUBLIC "-//W3C//DTD SVG 1.1//EN" "http://www.w3.org/Graphics/SVG/1.1/DTD/svg11.dtd"><svg width="292.3828125" height="200" viewBox="0 0 292.3828125 200" version="1.1" xmlns="http://www.w3.org/2000/svg" xmlns:xlink="http://www.w3.org/1999/xlink"><defs><style type="text/css"><![CDATA[
@font-face { font-family: ifont; src: url("//at.alicdn.com/t/font_1442373896_4754455.eot?#iefix") format("embedded-opentype"), url("//at.alicdn.com/t/font_1442373896_4754455.woff") format("woff"), url("//at.alicdn.com/t/font_1442373896_4754455.ttf") format("truetype"), url("//at.alicdn.com/t/font_1442373896_4754455.svg#ifont") format("svg"); }

]]></style></defs><g class="transform-group"><g transform="scale(0.1953125, 0.1953125)"><path d="M459.01824 1024 0 511.998031 459.01824 0 1284.752542 0C1401.767778 0 1496.615385 98.229839 1496.615385 219.427367L1496.615385 804.568734C1496.615385 925.74531 1401.767778 1024 1284.752542 1024L459.01824 1024ZM1449.848911 247.295291C1449.848911 137.633319 1363.886474 48.765282 1257.836308 48.765282L486.145575 48.765282 70.154634 511.998031 486.145575 975.236057 1257.836308 975.236057C1363.886474 975.236057 1449.848911 886.34179 1449.848911 776.704709L1449.848911 247.295291 1449.848911 247.295291ZM1104.760123 771.825428 888.618142 546.475126 672.47104 771.825428 639.407655 737.35361 855.549637 511.998031 639.407655 286.647729 672.47104 252.170634 888.618142 477.526174 1104.760123 252.170634 1137.828234 286.647729 921.681132 511.998031 1137.828234 737.35361 1104.760123 771.825428 1104.760123 771.825428Z" fill="#272636"></path></g></g></svg>