<?xml version="1.0" standalone="no"?><!DOCTYPE svg PUBLIC "-//W3C//DTD SVG 1.1//EN" "http://www.w3.org/Graphics/SVG/1.1/DTD/svg11.dtd"><svg width="200" height="200" viewBox="0 0 200 200" version="1.1" xmlns="http://www.w3.org/2000/svg" xmlns:xlink="http://www.w3.org/1999/xlink"><defs><style type="text/css"><![CDATA[
@font-face { font-family: ifont; src: url("//at.alicdn.com/t/font_1442373896_4754455.eot?#iefix") format("embedded-opentype"), url("//at.alicdn.com/t/font_1442373896_4754455.woff") format("woff"), url("//at.alicdn.com/t/font_1442373896_4754455.ttf") format("truetype"), url("//at.alicdn.com/t/font_1442373896_4754455.svg#ifont") format("svg"); }

]]></style></defs><g class="transform-group"><g transform="scale(0.1953125, 0.1953125)"><path d="M 765.376 280.576 c 0 0 103.04 -1.024 103.04 100.992 c 0 0 9.536 98.752 -103.04 100.928 c 0 0 -100.864 2.176 -99.84 -100.928 C 665.536 381.504 664.448 290.112 765.376 280.576 ZM 968.32 125.44 c 0 0 54.208 4.224 54.208 52.032 l 0 712.832 c 0 0 -3.2 51.008 -54.208 52.096 L 968.32 125.44 ZM 1.472 890.368 c 0 0 2.176 52.096 52.096 52.096 L 968.32 942.464 l 0 -150.848 l -99.712 0 l -203.072 -206.144 l -153.024 153.984 L 304.32 482.432 l -205.056 307.072 l -45.632 1.024 L 52.48 177.536 L 1.472 177.536 L 1.472 890.368 ZM 968.32 125.44 L 53.568 125.44 c 0 0 -52.096 -1.088 -52.096 52.032 L 968.32 177.472 L 968.32 125.44 Z" fill="#272636"></path></g></g></svg>