<?xml version="1.0" standalone="no"?><!DOCTYPE svg PUBLIC "-//W3C//DTD SVG 1.1//EN" "http://www.w3.org/Graphics/SVG/1.1/DTD/svg11.dtd"><svg width="200" height="200" viewBox="0 0 200 200" version="1.1" xmlns="http://www.w3.org/2000/svg" xmlns:xlink="http://www.w3.org/1999/xlink"><defs><style type="text/css"><![CDATA[
@font-face { font-family: ifont; src: url("//at.alicdn.com/t/font_1442373896_4754455.eot?#iefix") format("embedded-opentype"), url("//at.alicdn.com/t/font_1442373896_4754455.woff") format("woff"), url("//at.alicdn.com/t/font_1442373896_4754455.ttf") format("truetype"), url("//at.alicdn.com/t/font_1442373896_4754455.svg#ifont") format("svg"); }

]]></style></defs><g class="transform-group"><g transform="scale(0.1953125, 0.1953125)"><path d="M511.270383 82.647325c-237.811244 0-430.583712 192.772468-430.583712 430.583712s192.772468 430.583712 430.583712 430.583712 430.583712-192.772468 430.583712-430.583712S749.081627 82.647325 511.270383 82.647325zM511.270383 895.971092c-211.383338 0-382.741078-171.374112-382.741078-382.741078 0-211.398688 171.357739-382.741078 382.741078-382.741078 211.381291 0 382.741078 171.341367 382.741078 382.741078C894.010437 724.598003 722.651674 895.971092 511.270383 895.971092zM763.440659 329.8341 259.100106 329.8341c-26.381857 0-47.842635 21.460778-47.842635 47.842635l0 271.107581c0 26.381857 21.460778 47.842635 47.842635 47.842635l504.340553 0c26.381857 0 47.842635-21.460778 47.842635-47.842635L811.283294 377.676735C811.283294 351.294878 789.822516 329.8341 763.440659 329.8341zM779.387863 377.676735l0 60.301388L665.714917 437.978123l0-76.249615 97.725742 0C772.239046 361.729531 779.387863 368.877325 779.387863 377.676735zM668.378583 558.908356l-91.698468 0 0-89.034802 91.698468 0L668.378583 558.908356zM526.173814 437.978123l0-76.249615L633.819486 361.728508l0 76.249615L526.173814 437.978123zM453.086216 558.908356l0-89.034802 91.698468 0 0 89.034802L453.086216 558.908356zM494.279407 437.978123 386.632711 437.978123l0-76.249615 107.645672 0L494.278383 437.978123zM421.191808 469.873554l0 89.034802L243.151879 558.908356l0-89.034802L421.191808 469.873554zM595.274612 590.803787l0 73.928756L353.414145 664.732543l0-73.928756L595.274612 590.803787zM259.100106 361.729531l95.638197 0 0 76.249615L243.151879 437.979146l0-60.301388C243.151879 368.877325 250.300696 361.729531 259.100106 361.729531zM243.151879 648.784316l0-57.981553 78.366835 0 0 73.928756-62.419631 0C250.300696 664.732543 243.151879 657.583726 243.151879 648.784316zM763.440659 664.732543 627.170043 664.732543l0-73.928756 41.208541 0 11.960403 0 19.934005 0L700.272991 469.873554l79.114872 0 0 178.911786C779.387863 657.583726 772.239046 664.732543 763.440659 664.732543z" fill="#272636"></path></g></g></svg>