<?xml version="1.0" standalone="no"?><!DOCTYPE svg PUBLIC "-//W3C//DTD SVG 1.1//EN" "http://www.w3.org/Graphics/SVG/1.1/DTD/svg11.dtd"><svg width="200" height="200" viewBox="0 0 200 200" version="1.1" xmlns="http://www.w3.org/2000/svg" xmlns:xlink="http://www.w3.org/1999/xlink"><defs><style type="text/css"><![CDATA[
@font-face { font-family: ifont; src: url("//at.alicdn.com/t/font_1442373896_4754455.eot?#iefix") format("embedded-opentype"), url("//at.alicdn.com/t/font_1442373896_4754455.woff") format("woff"), url("//at.alicdn.com/t/font_1442373896_4754455.ttf") format("truetype"), url("//at.alicdn.com/t/font_1442373896_4754455.svg#ifont") format("svg"); }

]]></style></defs><g class="transform-group"><g transform="scale(0.1953125, 0.1953125)"><path d="M902.516 675.217c22.237-52.558 33.558-107.944 33.558-165.353 0-57.408-11.32-113.201-33.558-165.354-21.427-50.535-52.151-96.219-90.963-135.031-39.217-39.216-84.495-69.537-135.031-90.964-52.558-22.237-107.947-33.557-165.355-33.557-57.408 0-113.198 11.32-165.354 33.557-50.535 21.428-96.22 52.153-135.031 90.964-39.216 39.215-69.538 84.496-90.965 135.031C97.582 397.067 86.26 452.456 86.26 509.864c0 57.409 11.322 113.2 33.556 165.353 21.427 50.537 52.153 96.222 90.965 135.034 39.215 39.214 84.496 69.535 135.031 90.963 52.557 22.234 107.946 33.555 165.354 33.555 57.408 0 113.202-11.32 165.355-33.555 50.536-21.428 96.22-52.152 135.031-90.963C850.769 771.035 881.494 725.754 902.516 675.217zM661.157 864.018c-47.302 20.216-97.838 30.325-149.586 30.325-52.153 0-102.283-10.109-149.586-30.325-45.685-19.404-86.92-47.299-122.094-82.474-35.174-35.173-63.068-76.409-82.474-122.094-20.214-47.303-30.323-97.837-30.323-149.586 0-52.153 10.109-102.284 30.323-149.586 19.406-45.684 47.3-86.922 82.474-122.094 35.174-35.174 76.41-63.07 122.094-82.476 47.303-20.214 97.837-30.321 149.586-30.321 52.153 0 102.285 10.106 149.586 30.321 45.685 19.406 86.923 47.302 122.094 82.476 35.174 35.172 63.071 76.41 82.475 122.094 20.218 47.303 30.323 97.838 30.323 149.586 0 52.153-10.105 102.284-30.323 149.586-19.403 45.685-47.301 86.921-82.475 122.094C748.077 816.719 706.842 844.613 661.157 864.018zM718.162 543.824c0-26.278-5.256-52.153-15.361-76.815-10.109-23.853-24.26-45.281-42.047-64.282-37.6-38.812-86.52-59.833-138.268-59.833l-57.409 0 0-56.602c0-7.277-5.66-11.724-11.724-11.724-2.427 0-4.851 0.808-6.873 2.426l-43.663 33.958-55.792 43.665c-2.83 2.02-4.447 5.659-4.447 9.297 0 3.64 1.617 7.278 4.447 9.3l55.792 43.662 43.258 33.96c2.021 1.618 4.446 2.424 6.873 2.424 5.66 0 11.724-4.446 11.724-11.724l0-58.621 57.004 0c41.642 0 80.858 17.386 110.773 48.516 29.11 30.32 45.686 71.558 45.686 112.794 0 41.238-16.575 82.477-45.686 112.797-29.915 31.13-69.132 48.516-110.773 48.516l-62.664 0c-10.916 0-19.811 8.894-19.811 19.81 0 10.917 8.894 19.811 19.811 19.811l62.664 0c51.749 0 101.072-21.427 138.267-59.835 18.192-18.597 32.344-40.024 42.046-64.281C712.906 595.976 718.162 570.104 718.162 543.824z" fill="#272636"></path></g></g></svg>