<?xml version="1.0" standalone="no"?><!DOCTYPE svg PUBLIC "-//W3C//DTD SVG 1.1//EN" "http://www.w3.org/Graphics/SVG/1.1/DTD/svg11.dtd"><svg width="200" height="200" viewBox="0 0 200 200" version="1.1" xmlns="http://www.w3.org/2000/svg" xmlns:xlink="http://www.w3.org/1999/xlink"><defs><style type="text/css"><![CDATA[
@font-face { font-family: ifont; src: url("//at.alicdn.com/t/font_1442373896_4754455.eot?#iefix") format("embedded-opentype"), url("//at.alicdn.com/t/font_1442373896_4754455.woff") format("woff"), url("//at.alicdn.com/t/font_1442373896_4754455.ttf") format("truetype"), url("//at.alicdn.com/t/font_1442373896_4754455.svg#ifont") format("svg"); }

]]></style></defs><g class="transform-group"><g transform="scale(0.1953125, 0.1953125)"><path d="M514.44 56.292c-253.3 0-459.3 206-459.3 459.3 0 253.3 206 459.3 459.3 459.3s459.3-206 459.3-459.3C973.74 262.392 767.74 56.292 514.44 56.292L514.44 56.292zM514.44 926.492c-226.6 0-410.9-184.3-410.9-410.9 0-226.5 184.3-410.8 410.9-410.8s410.9 184.3 410.9 410.8C925.34 742.092 741.04 926.492 514.44 926.492L514.44 926.492zM661.94 487.492l-119.6 0 0-119.3c0-11.4-16.1-20.6-27.5-20.6-11.4 0-27.5 9.2-27.5 20.6l0 119.3-120.3 0c-11.4 0-20.6 16.1-20.6 27.5s9.2 27.5 20.6 27.5l120.3 0L487.34 662.992c0 11.4 16.1 20.6 27.5 20.6 11.4 0 27.5-9.2 27.5-20.6l0-120.6 119.6 0c11.4 0 20.6-16.1 20.6-27.5C682.54 503.592 673.34 487.492 661.94 487.492L661.94 487.492z" fill="#272636"></path></g></g></svg>